<svg xmlns="http://www.w3.org/2000/svg" xmlns:xlink="http://www.w3.org/1999/xlink" width="640" zoomAndPan="magnify" viewBox="0 0 480 269.999989" height="360" preserveAspectRatio="xMidYMid meet" version="1.0"><defs><g/><clipPath id="be7c45d92f"><path d="M 26 88 L 78 88 L 78 130 L 26 130 Z M 26 88 " clip-rule="nonzero"/></clipPath><clipPath id="c10fa99033"><path d="M 26.304688 117.773438 L 70.023438 87.996094 L 78.570312 100.542969 L 34.851562 130.324219 Z M 26.304688 117.773438 " clip-rule="nonzero"/></clipPath><clipPath id="8568ee3d8e"><path d="M 27.542969 116.929688 L 68.785156 88.839844 C 69.113281 88.617188 69.519531 88.53125 69.910156 88.605469 C 70.300781 88.679688 70.644531 88.90625 70.867188 89.234375 L 77.726562 99.304688 C 77.949219 99.632812 78.035156 100.035156 77.960938 100.425781 C 77.886719 100.816406 77.660156 101.164062 77.332031 101.386719 L 36.089844 129.480469 C 35.761719 129.703125 35.359375 129.785156 34.964844 129.710938 C 34.574219 129.636719 34.230469 129.410156 34.007812 129.082031 L 27.148438 119.015625 C 26.925781 118.6875 26.839844 118.28125 26.914062 117.890625 C 26.988281 117.5 27.214844 117.15625 27.542969 116.929688 Z M 27.542969 116.929688 " clip-rule="nonzero"/></clipPath><clipPath id="d4c9935d4c"><path d="M 9 108 L 96 108 L 96 174 L 9 174 Z M 9 108 " clip-rule="nonzero"/></clipPath><clipPath id="f72c4ae7d1"><path d="M 8.558594 161.765625 L 87.617188 107.914062 L 96.164062 120.464844 L 17.105469 174.316406 Z M 8.558594 161.765625 " clip-rule="nonzero"/></clipPath><clipPath id="2d0ea82cb8"><path d="M 9.796875 160.921875 L 86.335938 108.789062 C 86.667969 108.5625 87.070312 108.480469 87.460938 108.554688 C 87.851562 108.628906 88.199219 108.855469 88.421875 109.183594 L 95.28125 119.25 C 95.503906 119.582031 95.585938 119.984375 95.515625 120.375 C 95.441406 120.765625 95.214844 121.113281 94.882812 121.335938 L 18.34375 173.46875 C 18.015625 173.695312 17.613281 173.777344 17.21875 173.703125 C 16.828125 173.628906 16.484375 173.402344 16.261719 173.074219 L 9.402344 163.007812 C 9.179688 162.679688 9.09375 162.273438 9.167969 161.882812 C 9.242188 161.492188 9.46875 161.148438 9.796875 160.921875 Z M 9.796875 160.921875 " clip-rule="nonzero"/></clipPath><clipPath id="f9e37190c2"><path d="M 56 125 L 91 125 L 91 164 L 56 164 Z M 56 125 " clip-rule="nonzero"/></clipPath><clipPath id="69eb2f0f1d"><path d="M 79.042969 164.523438 L 56.046875 134.101562 L 68.160156 124.949219 L 91.152344 155.367188 Z M 79.042969 164.523438 " clip-rule="nonzero"/></clipPath><clipPath id="f019fe1e46"><path d="M 78.136719 163.324219 L 56.960938 135.308594 C 56.71875 134.992188 56.617188 134.59375 56.671875 134.199219 C 56.726562 133.804688 56.933594 133.449219 57.25 133.207031 L 66.96875 125.863281 C 67.289062 125.621094 67.6875 125.519531 68.082031 125.574219 C 68.476562 125.628906 68.832031 125.835938 69.070312 126.15625 L 90.25 154.171875 C 90.488281 154.488281 90.59375 154.886719 90.539062 155.28125 C 90.484375 155.675781 90.273438 156.03125 89.957031 156.273438 L 80.238281 163.617188 C 79.921875 163.859375 79.519531 163.960938 79.125 163.90625 C 78.734375 163.851562 78.375 163.644531 78.136719 163.324219 Z M 78.136719 163.324219 " clip-rule="nonzero"/></clipPath><clipPath id="ecaedd7e6c"><path d="M 47 145 L 91 145 L 91 182 L 47 182 Z M 47 145 " clip-rule="nonzero"/></clipPath><clipPath id="4e509b12b1"><path d="M 46.703125 169.449219 L 82.628906 144.976562 L 91.175781 157.527344 L 55.25 181.996094 Z M 46.703125 169.449219 " clip-rule="nonzero"/></clipPath><clipPath id="c34cc3dda0"><path d="M 47.941406 168.605469 L 81.371094 145.835938 C 81.699219 145.613281 82.101562 145.527344 82.492188 145.601562 C 82.882812 145.675781 83.230469 145.902344 83.453125 146.230469 L 90.3125 156.300781 C 90.535156 156.628906 90.621094 157.03125 90.546875 157.421875 C 90.472656 157.816406 90.246094 158.160156 89.917969 158.382812 L 56.488281 181.152344 C 56.160156 181.378906 55.753906 181.460938 55.363281 181.386719 C 54.972656 181.3125 54.628906 181.085938 54.40625 180.757812 L 47.546875 170.691406 C 47.324219 170.359375 47.238281 169.957031 47.3125 169.566406 C 47.386719 169.175781 47.613281 168.828125 47.941406 168.605469 Z M 47.941406 168.605469 " clip-rule="nonzero"/></clipPath><clipPath id="ddf1cdc923"><path d="M 96 114 L 134 114 L 134 147 L 96 147 Z M 96 114 " clip-rule="nonzero"/></clipPath><clipPath id="c680d4cd14"><path d="M 96.125 134.082031 L 125.582031 114.015625 L 134.128906 126.5625 L 104.671875 146.628906 Z M 96.125 134.082031 " clip-rule="nonzero"/></clipPath><clipPath id="54c23c4643"><path d="M 97.363281 133.234375 L 124.332031 114.867188 C 124.664062 114.640625 125.066406 114.558594 125.457031 114.632812 C 125.847656 114.707031 126.195312 114.933594 126.417969 115.261719 L 133.277344 125.328125 C 133.5 125.65625 133.585938 126.0625 133.511719 126.453125 C 133.4375 126.84375 133.210938 127.1875 132.878906 127.414062 L 105.910156 145.785156 C 105.582031 146.007812 105.179688 146.089844 104.785156 146.015625 C 104.394531 145.941406 104.050781 145.71875 103.828125 145.386719 L 96.96875 135.320312 C 96.746094 134.992188 96.660156 134.585938 96.734375 134.195312 C 96.808594 133.804688 97.035156 133.460938 97.363281 133.234375 Z M 97.363281 133.234375 " clip-rule="nonzero"/></clipPath><clipPath id="40344abc92"><path d="M 95.660156 95.957031 L 113.726562 95.957031 L 113.726562 114.023438 L 95.660156 114.023438 Z M 95.660156 95.957031 " clip-rule="nonzero"/></clipPath><clipPath id="eb665cd6f6"><path d="M 104.691406 95.957031 C 99.703125 95.957031 95.660156 100.003906 95.660156 104.992188 C 95.660156 109.980469 99.703125 114.023438 104.691406 114.023438 C 109.679688 114.023438 113.726562 109.980469 113.726562 104.992188 C 113.726562 100.003906 109.679688 95.957031 104.691406 95.957031 Z M 104.691406 95.957031 " clip-rule="nonzero"/></clipPath></defs><g clip-path="url(#be7c45d92f)"><g clip-path="url(#c10fa99033)"><g clip-path="url(#8568ee3d8e)"><path fill="#ffe14f" d="M 26.304688 117.773438 L 70.023438 87.996094 L 78.570312 100.542969 L 34.851562 130.324219 Z M 26.304688 117.773438 " fill-opacity="1" fill-rule="nonzero"/></g></g></g><g clip-path="url(#d4c9935d4c)"><g clip-path="url(#f72c4ae7d1)"><g clip-path="url(#2d0ea82cb8)"><path fill="#ffe14f" d="M 8.558594 161.765625 L 87.570312 107.949219 L 96.117188 120.496094 L 17.105469 174.316406 Z M 8.558594 161.765625 " fill-opacity="1" fill-rule="nonzero"/></g></g></g><g clip-path="url(#f9e37190c2)"><g clip-path="url(#69eb2f0f1d)"><g clip-path="url(#f019fe1e46)"><path fill="#ffe14f" d="M 79.042969 164.523438 L 56.046875 134.101562 L 68.160156 124.949219 L 91.152344 155.367188 Z M 79.042969 164.523438 " fill-opacity="1" fill-rule="nonzero"/></g></g></g><g clip-path="url(#ecaedd7e6c)"><g clip-path="url(#4e509b12b1)"><g clip-path="url(#c34cc3dda0)"><path fill="#ffe14f" d="M 46.703125 169.449219 L 82.628906 144.976562 L 91.175781 157.527344 L 55.25 181.996094 Z M 46.703125 169.449219 " fill-opacity="1" fill-rule="nonzero"/></g></g></g><g clip-path="url(#ddf1cdc923)"><g clip-path="url(#c680d4cd14)"><g clip-path="url(#54c23c4643)"><path fill="#ffe14f" d="M 96.125 134.082031 L 125.582031 114.015625 L 134.128906 126.5625 L 104.671875 146.628906 Z M 96.125 134.082031 " fill-opacity="1" fill-rule="nonzero"/></g></g></g><g clip-path="url(#40344abc92)"><g clip-path="url(#eb665cd6f6)"><path fill="#ffe14f" d="M 95.660156 95.957031 L 113.726562 95.957031 L 113.726562 114.023438 L 95.660156 114.023438 Z M 95.660156 95.957031 " fill-opacity="1" fill-rule="nonzero"/></g></g><g fill="#ffffff" fill-opacity="1"><g transform="translate(153.780109, 155.922982)"><g><path d="M 12.171875 -16.28125 L 12.171875 0 L 3.203125 0 L 3.203125 -41.453125 L 21.921875 -41.453125 L 21.921875 -33.703125 L 12.171875 -33.703125 L 12.171875 -23.765625 L 21.28125 -23.765625 L 21.28125 -16.28125 Z M 12.171875 -16.28125 "/></g></g></g><g fill="#ffffff" fill-opacity="1"><g transform="translate(179.026382, 155.922982)"><g><path d="M 12.171875 -41.453125 L 12.171875 0 L 3.203125 0 L 3.203125 -41.453125 Z M 12.171875 -41.453125 "/></g></g></g><g fill="#ffffff" fill-opacity="1"><g transform="translate(195.942694, 155.922982)"><g><path d="M 0.828125 -33.828125 L 0.828125 -41.453125 L 23.265625 -41.453125 L 23.265625 -33.828125 L 16.53125 -33.828125 L 16.53125 0 L 7.5625 0 L 7.5625 -33.828125 Z M 0.828125 -33.828125 "/></g></g></g><g fill="#ffffff" fill-opacity="1"><g transform="translate(221.381203, 155.922982)"><g><path d="M 18.640625 -6.796875 L 18.640625 -13.203125 L 27.171875 -13.203125 L 27.171875 -7.8125 C 27.171875 -2.175781 24.519531 0.640625 19.21875 0.640625 L 11.15625 0.640625 C 5.851562 0.640625 3.203125 -2.175781 3.203125 -7.8125 L 3.203125 -33.640625 C 3.203125 -39.273438 5.851562 -42.09375 11.15625 -42.09375 L 19.21875 -42.09375 C 24.519531 -42.09375 27.171875 -39.273438 27.171875 -33.640625 L 27.171875 -29.734375 L 18.640625 -29.734375 L 18.640625 -34.734375 C 18.640625 -35.078125 18.519531 -35.375 18.28125 -35.625 C 18.050781 -35.882812 17.765625 -36.015625 17.421875 -36.015625 L 13.390625 -36.015625 C 13.046875 -36.015625 12.753906 -35.882812 12.515625 -35.625 C 12.285156 -35.375 12.171875 -35.078125 12.171875 -34.734375 L 12.171875 -6.796875 C 12.171875 -6.453125 12.285156 -6.148438 12.515625 -5.890625 C 12.753906 -5.640625 13.046875 -5.515625 13.390625 -5.515625 L 17.421875 -5.515625 C 17.765625 -5.515625 18.050781 -5.640625 18.28125 -5.890625 C 18.519531 -6.148438 18.640625 -6.453125 18.640625 -6.796875 Z M 18.640625 -6.796875 "/></g></g></g><g fill="#ffffff" fill-opacity="1"><g transform="translate(252.009933, 155.922982)"><g><path d="M 12.171875 -16.984375 L 12.171875 0 L 3.203125 0 L 3.203125 -41.453125 L 19.15625 -41.453125 C 24.457031 -41.453125 27.109375 -38.632812 27.109375 -33 L 27.109375 -28.1875 C 27.109375 -24.769531 25.890625 -22.59375 23.453125 -21.65625 C 25.585938 -20.882812 26.65625 -19.132812 26.65625 -16.40625 L 26.65625 0 L 17.6875 0 L 17.6875 -15.703125 C 17.6875 -16.554688 17.28125 -16.984375 16.46875 -16.984375 Z M 12.171875 -35.375 L 12.171875 -23.265625 L 16.921875 -23.265625 C 17.253906 -23.265625 17.539062 -23.390625 17.78125 -23.640625 C 18.019531 -23.898438 18.140625 -24.203125 18.140625 -24.546875 L 18.140625 -34.09375 C 18.140625 -34.4375 18.019531 -34.734375 17.78125 -34.984375 C 17.539062 -35.242188 17.253906 -35.375 16.921875 -35.375 Z M 12.171875 -35.375 "/></g></g></g><g fill="#ffffff" fill-opacity="1"><g transform="translate(282.959035, 155.922982)"><g><path d="M 12.171875 -7.4375 L 22.109375 -7.4375 L 22.109375 0 L 3.203125 0 L 3.203125 -41.453125 L 22.109375 -41.453125 L 22.109375 -34.15625 L 12.171875 -34.15625 L 12.171875 -24.40625 L 21.46875 -24.40625 L 21.46875 -17.359375 L 12.171875 -17.359375 Z M 12.171875 -7.4375 "/></g></g></g><g fill="#ffffff" fill-opacity="1"><g transform="translate(308.333467, 155.922982)"><g><path d="M 19.671875 -42.09375 C 24.972656 -42.09375 27.625 -39.273438 27.625 -33.640625 L 27.625 0 L 18.640625 0 L 18.640625 -13.90625 L 12.171875 -13.90625 L 12.171875 0 L 3.203125 0 L 3.203125 -33.640625 C 3.203125 -39.273438 5.851562 -42.09375 11.15625 -42.09375 Z M 12.171875 -20.828125 L 18.640625 -20.828125 L 18.640625 -34.734375 C 18.640625 -35.078125 18.519531 -35.375 18.28125 -35.625 C 18.050781 -35.882812 17.765625 -36.015625 17.421875 -36.015625 L 13.390625 -36.015625 C 13.046875 -36.015625 12.753906 -35.882812 12.515625 -35.625 C 12.285156 -35.375 12.171875 -35.078125 12.171875 -34.734375 Z M 12.171875 -20.828125 "/></g></g></g><g fill="#ffffff" fill-opacity="1"><g transform="translate(340.69226, 155.922982)"><g><path d="M 0.828125 -33.828125 L 0.828125 -41.453125 L 23.265625 -41.453125 L 23.265625 -33.828125 L 16.53125 -33.828125 L 16.53125 0 L 7.5625 0 L 7.5625 -33.828125 Z M 0.828125 -33.828125 "/></g></g></g><g fill="#ffffff" fill-opacity="1"><g transform="translate(366.130763, 155.922982)"><g><path d="M 12.171875 -41.453125 L 12.171875 0 L 3.203125 0 L 3.203125 -41.453125 Z M 12.171875 -41.453125 "/></g></g></g><g fill="#ffffff" fill-opacity="1"><g transform="translate(383.047071, 155.922982)"><g><path d="M 19.921875 -41.453125 L 28.578125 -41.453125 L 20 0 L 9.671875 0 L 1.09375 -41.453125 L 9.796875 -41.453125 L 14.859375 -11.21875 Z M 19.921875 -41.453125 "/></g></g></g><g fill="#ffffff" fill-opacity="1"><g transform="translate(414.124335, 155.922982)"><g><path d="M 12.171875 -7.4375 L 22.109375 -7.4375 L 22.109375 0 L 3.203125 0 L 3.203125 -41.453125 L 22.109375 -41.453125 L 22.109375 -34.15625 L 12.171875 -34.15625 L 12.171875 -24.40625 L 21.46875 -24.40625 L 21.46875 -17.359375 L 12.171875 -17.359375 Z M 12.171875 -7.4375 "/></g></g></g><g fill="#ffffff" fill-opacity="1"><g transform="translate(439.498767, 155.922982)"><g><path d="M 26.203125 -30.5625 L 17.6875 -30.5625 L 17.6875 -33.828125 C 17.6875 -34.171875 17.566406 -34.46875 17.328125 -34.71875 C 17.097656 -34.976562 16.8125 -35.109375 16.46875 -35.109375 L 12.9375 -35.109375 C 12.601562 -35.109375 12.316406 -34.976562 12.078125 -34.71875 C 11.835938 -34.46875 11.71875 -34.171875 11.71875 -33.828125 L 11.71875 -26.46875 C 11.71875 -26.125 11.835938 -25.820312 12.078125 -25.5625 C 12.316406 -25.3125 12.601562 -25.1875 12.9375 -25.1875 L 18.703125 -25.1875 C 24.003906 -25.09375 26.65625 -22.269531 26.65625 -16.71875 L 26.65625 -7.8125 C 26.65625 -2.175781 24.003906 0.640625 18.703125 0.640625 L 11.15625 0.640625 C 5.851562 0.640625 3.203125 -2.175781 3.203125 -7.8125 L 3.203125 -12.109375 L 11.71875 -12.109375 L 11.71875 -7.5 C 11.71875 -7.15625 11.835938 -6.851562 12.078125 -6.59375 C 12.316406 -6.34375 12.601562 -6.21875 12.9375 -6.21875 L 16.921875 -6.21875 C 17.253906 -6.21875 17.539062 -6.34375 17.78125 -6.59375 C 18.019531 -6.851562 18.140625 -7.15625 18.140625 -7.5 L 18.140625 -15.640625 C 18.140625 -15.972656 18.019531 -16.269531 17.78125 -16.53125 C 17.539062 -16.789062 17.253906 -16.921875 16.921875 -16.921875 L 11.15625 -16.921875 C 5.851562 -16.921875 3.203125 -19.738281 3.203125 -25.375 L 3.203125 -33.640625 C 3.203125 -39.273438 5.851562 -42.09375 11.15625 -42.09375 L 18.265625 -42.09375 C 23.554688 -42.09375 26.203125 -39.273438 26.203125 -33.640625 Z M 26.203125 -30.5625 "/></g></g></g></svg>