 <svg xmlns="http://www.w3.org/2000/svg" xmlns:xlink="http://www.w3.org/1999/xlink" width="500" zoomAndPan="magnify" viewBox="0 0 375 374.999991" height="500" preserveAspectRatio="xMidYMid meet" version="1.0"><defs><clipPath id="61f4c3d357"><path d="M 110 106 L 199 106 L 199 177 L 110 177 Z M 110 106 " clip-rule="nonzero"/></clipPath><clipPath id="80490589dd"><path d="M 108.609375 156.894531 L 185.199219 104.722656 L 200.171875 126.707031 L 123.582031 178.875 Z M 108.609375 156.894531 " clip-rule="nonzero"/></clipPath><clipPath id="5f01f48d78"><path d="M 112.949219 153.9375 L 180.859375 107.679688 C 182.011719 106.898438 183.425781 106.601562 184.792969 106.863281 C 186.160156 107.121094 187.371094 107.914062 188.152344 109.0625 L 197.214844 122.367188 C 198 123.519531 198.292969 124.933594 198.035156 126.300781 C 197.773438 127.667969 196.984375 128.878906 195.832031 129.660156 L 127.917969 175.917969 C 126.769531 176.703125 125.355469 177 123.984375 176.738281 C 122.617188 176.480469 121.410156 175.6875 120.625 174.535156 L 111.5625 161.234375 C 110.78125 160.082031 110.484375 158.667969 110.746094 157.300781 C 111.003906 155.929688 111.796875 154.722656 112.949219 153.9375 Z M 112.949219 153.9375 " clip-rule="nonzero"/></clipPath><clipPath id="648e87f6c7"><path d="M 79 141 L 229 141 L 229 254 L 79 254 Z M 79 141 " clip-rule="nonzero"/></clipPath><clipPath id="6a8dba5ecb"><path d="M 77.519531 233.960938 L 216.019531 139.621094 L 230.992188 161.601562 L 92.492188 255.941406 Z M 77.519531 233.960938 " clip-rule="nonzero"/></clipPath><clipPath id="b28bb187be"><path d="M 81.859375 231.003906 L 211.609375 142.625 C 212.757812 141.84375 214.175781 141.546875 215.542969 141.808594 C 216.910156 142.066406 218.121094 142.859375 218.902344 144.007812 L 227.964844 157.3125 C 228.75 158.464844 229.042969 159.878906 228.785156 161.246094 C 228.523438 162.613281 227.730469 163.824219 226.582031 164.605469 L 96.832031 252.984375 C 95.679688 253.769531 94.265625 254.0625 92.898438 253.804688 C 91.53125 253.546875 90.320312 252.753906 89.539062 251.601562 L 80.476562 238.296875 C 79.691406 237.148438 79.398438 235.734375 79.65625 234.363281 C 79.917969 232.996094 80.707031 231.789062 81.859375 231.003906 Z M 81.859375 231.003906 " clip-rule="nonzero"/></clipPath><clipPath id="06e449b6ee"><path d="M 163 171 L 220 171 L 220 237 L 163 237 Z M 163 171 " clip-rule="nonzero"/></clipPath><clipPath id="bb41af1efb"><path d="M 200.277344 238.992188 L 161.109375 184.875 L 182.652344 169.28125 L 221.820312 223.398438 Z M 200.277344 238.992188 " clip-rule="nonzero"/></clipPath><clipPath id="9c042c7e43"><path d="M 197.199219 234.738281 L 164.199219 189.148438 C 163.382812 188.019531 163.050781 186.613281 163.269531 185.238281 C 163.488281 183.863281 164.246094 182.632812 165.375 181.816406 L 178.414062 172.378906 C 179.542969 171.5625 180.949219 171.226562 182.324219 171.449219 C 183.699219 171.667969 184.929688 172.425781 185.746094 173.554688 L 218.742188 219.144531 C 219.558594 220.273438 219.894531 221.679688 219.671875 223.054688 C 219.453125 224.429688 218.695312 225.660156 217.566406 226.476562 L 204.527344 235.914062 C 203.402344 236.730469 201.996094 237.066406 200.621094 236.84375 C 199.246094 236.625 198.015625 235.867188 197.199219 234.738281 Z M 197.199219 234.738281 " clip-rule="nonzero"/></clipPath><clipPath id="43549413f8"><path d="M 147 205 L 221 205 L 221 269 L 147 269 Z M 147 205 " clip-rule="nonzero"/></clipPath><clipPath id="9441d5658e"><path d="M 145.816406 248.863281 L 207.113281 203.671875 L 222.894531 225.082031 L 161.597656 270.269531 Z M 145.816406 248.863281 " clip-rule="nonzero"/></clipPath><clipPath id="4e7d8e90a4"><path d="M 150.042969 245.746094 L 202.851562 206.8125 C 203.972656 205.988281 205.375 205.640625 206.753906 205.847656 C 208.128906 206.058594 209.367188 206.804688 210.191406 207.925781 L 219.746094 220.878906 C 220.570312 222 220.917969 223.402344 220.710938 224.78125 C 220.5 226.15625 219.753906 227.394531 218.632812 228.222656 L 165.824219 267.152344 C 164.703125 267.980469 163.300781 268.328125 161.925781 268.117188 C 160.546875 267.910156 159.308594 267.164062 158.484375 266.042969 L 148.933594 253.085938 C 148.105469 251.964844 147.757812 250.5625 147.96875 249.1875 C 148.175781 247.808594 148.921875 246.574219 150.042969 245.746094 Z M 150.042969 245.746094 " clip-rule="nonzero"/></clipPath><clipPath id="653466d7a8"><path d="M 232 152 L 296 152 L 296 206 L 232 206 Z M 232 152 " clip-rule="nonzero"/></clipPath><clipPath id="fd26522c47"><path d="M 230.921875 185.457031 L 282.523438 150.304688 L 297.496094 172.285156 L 245.890625 207.4375 Z M 230.921875 185.457031 " clip-rule="nonzero"/></clipPath><clipPath id="74e2c15e2e"><path d="M 235.257812 182.5 L 278.171875 153.269531 C 279.320312 152.488281 280.734375 152.191406 282.105469 152.453125 C 283.472656 152.710938 284.679688 153.503906 285.464844 154.65625 L 294.527344 167.957031 C 295.308594 169.109375 295.605469 170.523438 295.34375 171.890625 C 295.085938 173.257812 294.292969 174.46875 293.144531 175.253906 L 250.230469 204.480469 C 249.082031 205.265625 247.664062 205.558594 246.296875 205.300781 C 244.929688 205.039062 243.722656 204.25 242.9375 203.097656 L 233.875 189.792969 C 233.089844 188.644531 232.796875 187.230469 233.054688 185.859375 C 233.316406 184.492188 234.109375 183.285156 235.257812 182.5 Z M 235.257812 182.5 " clip-rule="nonzero"/></clipPath><clipPath id="9004c39c48"><path d="M 230.113281 118.671875 L 261.757812 118.671875 L 261.757812 150.316406 L 230.113281 150.316406 Z M 230.113281 118.671875 " clip-rule="nonzero"/></clipPath><clipPath id="496d8b6ea8"><path d="M 245.9375 118.671875 C 237.195312 118.671875 230.113281 125.753906 230.113281 134.492188 C 230.113281 143.234375 237.195312 150.316406 245.9375 150.316406 C 254.675781 150.316406 261.757812 143.234375 261.757812 134.492188 C 261.757812 125.753906 254.675781 118.671875 245.9375 118.671875 Z M 245.9375 118.671875 " clip-rule="nonzero"/></clipPath></defs><g clip-path="url(#61f4c3d357)"><g clip-path="url(#80490589dd)"><g clip-path="url(#5f01f48d78)"><path fill="#161616" d="M 108.609375 156.894531 L 185.199219 104.722656 L 200.171875 126.707031 L 123.582031 178.875 Z M 108.609375 156.894531 " fill-opacity="1" fill-rule="nonzero"/></g></g></g><g clip-path="url(#648e87f6c7)"><g clip-path="url(#6a8dba5ecb)"><g clip-path="url(#b28bb187be)"><path fill="#161616" d="M 77.519531 233.960938 L 215.933594 139.679688 L 230.90625 161.660156 L 92.492188 255.941406 Z M 77.519531 233.960938 " fill-opacity="1" fill-rule="nonzero"/></g></g></g><g clip-path="url(#06e449b6ee)"><g clip-path="url(#bb41af1efb)"><g clip-path="url(#9c042c7e43)"><path fill="#161616" d="M 200.277344 238.992188 L 161.109375 184.875 L 182.652344 169.28125 L 221.820312 223.398438 Z M 200.277344 238.992188 " fill-opacity="1" fill-rule="nonzero"/></g></g></g><g clip-path="url(#43549413f8)"><g clip-path="url(#9441d5658e)"><g clip-path="url(#4e7d8e90a4)"><path fill="#161616" d="M 145.816406 248.863281 L 207.113281 203.671875 L 222.894531 225.082031 L 161.597656 270.269531 Z M 145.816406 248.863281 " fill-opacity="1" fill-rule="nonzero"/></g></g></g><g clip-path="url(#653466d7a8)"><g clip-path="url(#fd26522c47)"><g clip-path="url(#74e2c15e2e)"><path fill="#161616" d="M 230.921875 185.457031 L 282.523438 150.304688 L 297.496094 172.285156 L 245.890625 207.4375 Z M 230.921875 185.457031 " fill-opacity="1" fill-rule="nonzero"/></g></g></g><g clip-path="url(#9004c39c48)"><g clip-path="url(#496d8b6ea8)"><path fill="#161616" d="M 230.113281 118.671875 L 261.757812 118.671875 L 261.757812 150.316406 L 230.113281 150.316406 Z M 230.113281 118.671875 " fill-opacity="1" fill-rule="nonzero"/></g></g></svg>