<svg xmlns="http://www.w3.org/2000/svg" xmlns:xlink="http://www.w3.org/1999/xlink" width="640" zoomAndPan="magnify" viewBox="0 0 480 269.999989" height="360" preserveAspectRatio="xMidYMid meet" version="1.0"><defs><clipPath id="5354163a7c"><path d="M 105 2 L 252 2 L 252 121 L 105 121 Z M 105 2 " clip-rule="nonzero"/></clipPath><clipPath id="60a7520c08"><path d="M 104.625 85.832031 L 228.074219 1.742188 L 252.207031 37.171875 L 128.757812 121.261719 Z M 104.625 85.832031 " clip-rule="nonzero"/></clipPath><clipPath id="006380faaf"><path d="M 105.867188 84.984375 L 226.835938 2.589844 C 227.164062 2.363281 227.566406 2.28125 227.957031 2.355469 C 228.347656 2.429688 228.695312 2.65625 228.917969 2.984375 L 251.363281 35.933594 C 251.585938 36.261719 251.671875 36.667969 251.597656 37.058594 C 251.523438 37.449219 251.296875 37.792969 250.96875 38.019531 L 130 120.414062 C 129.671875 120.640625 129.265625 120.722656 128.875 120.648438 C 128.484375 120.574219 128.136719 120.347656 127.914062 120.019531 L 105.472656 87.070312 C 105.246094 86.742188 105.164062 86.335938 105.238281 85.945312 C 105.3125 85.554688 105.539062 85.210938 105.867188 84.984375 Z M 105.867188 84.984375 " clip-rule="nonzero"/></clipPath><clipPath id="c7c529d28d"><path d="M 55 58 L 302 58 L 302 245 L 55 245 Z M 55 58 " clip-rule="nonzero"/></clipPath><clipPath id="206c54c96f"><path d="M 54.515625 210.039062 L 277.75 57.984375 L 301.882812 93.414062 L 78.648438 245.46875 Z M 54.515625 210.039062 " clip-rule="nonzero"/></clipPath><clipPath id="75359b75db"><path d="M 55.757812 209.195312 L 276.394531 58.90625 C 276.722656 58.683594 277.128906 58.597656 277.519531 58.671875 C 277.910156 58.746094 278.253906 58.972656 278.476562 59.300781 L 300.921875 92.25 C 301.144531 92.582031 301.230469 92.984375 301.15625 93.375 C 301.082031 93.765625 300.855469 94.113281 300.527344 94.335938 L 79.890625 244.621094 C 79.558594 244.847656 79.15625 244.929688 78.765625 244.855469 C 78.375 244.78125 78.027344 244.554688 77.804688 244.226562 L 55.363281 211.277344 C 55.136719 210.949219 55.054688 210.542969 55.128906 210.152344 C 55.203125 209.761719 55.429688 209.417969 55.757812 209.195312 Z M 55.757812 209.195312 " clip-rule="nonzero"/></clipPath><clipPath id="446a798f75"><path d="M 188 107 L 288 107 L 288 217 L 188 217 Z M 188 107 " clip-rule="nonzero"/></clipPath><clipPath id="ef94f46c94"><path d="M 254.78125 217.46875 L 187.929688 133.066406 L 221.535156 106.449219 L 288.382812 190.855469 Z M 254.78125 217.46875 " clip-rule="nonzero"/></clipPath><clipPath id="9f1c9f32ce"><path d="M 253.847656 216.292969 L 188.882812 134.269531 C 188.636719 133.960938 188.523438 133.5625 188.570312 133.167969 C 188.617188 132.773438 188.816406 132.410156 189.128906 132.164062 L 220.378906 107.410156 C 220.691406 107.164062 221.089844 107.050781 221.484375 107.097656 C 221.878906 107.144531 222.242188 107.34375 222.488281 107.65625 L 287.453125 189.679688 C 287.699219 189.992188 287.8125 190.386719 287.765625 190.785156 C 287.722656 191.179688 287.519531 191.539062 287.207031 191.785156 L 255.957031 216.539062 C 255.644531 216.785156 255.246094 216.898438 254.851562 216.851562 C 254.457031 216.808594 254.097656 216.605469 253.847656 216.292969 Z M 253.847656 216.292969 " clip-rule="nonzero"/></clipPath><clipPath id="568ec499df"><path d="M 164 159 L 287 159 L 287 270 L 164 270 Z M 164 159 " clip-rule="nonzero"/></clipPath><clipPath id="0247fd969d"><path d="M 163.714844 236.535156 L 260.574219 158.980469 L 287.367188 192.445312 L 190.507812 269.996094 Z M 163.714844 236.535156 " clip-rule="nonzero"/></clipPath><clipPath id="d07185977a"><path d="M 164.886719 235.597656 L 259.324219 159.980469 C 259.636719 159.730469 260.035156 159.617188 260.429688 159.660156 C 260.824219 159.703125 261.1875 159.902344 261.433594 160.210938 L 286.351562 191.332031 C 286.601562 191.644531 286.714844 192.039062 286.671875 192.4375 C 286.628906 192.832031 286.429688 193.191406 286.121094 193.441406 L 191.679688 269.058594 C 191.367188 269.308594 190.972656 269.425781 190.574219 269.378906 C 190.179688 269.335938 189.820312 269.136719 189.570312 268.828125 L 164.652344 237.707031 C 164.402344 237.394531 164.289062 237 164.332031 236.605469 C 164.375 236.207031 164.574219 235.847656 164.886719 235.597656 Z M 164.886719 235.597656 " clip-rule="nonzero"/></clipPath><clipPath id="defca45c4a"><path d="M 302 75 L 409 75 L 409 167 L 302 167 Z M 302 75 " clip-rule="nonzero"/></clipPath><clipPath id="ea39642c52"><path d="M 301.765625 131.859375 L 384.941406 75.203125 L 409.074219 110.632812 L 325.898438 167.289062 Z M 301.765625 131.859375 " clip-rule="nonzero"/></clipPath><clipPath id="c2facb894e"><path d="M 303.007812 131.015625 L 383.679688 76.066406 C 384.007812 75.839844 384.414062 75.757812 384.804688 75.832031 C 385.195312 75.90625 385.539062 76.132812 385.761719 76.460938 L 408.207031 109.410156 C 408.429688 109.738281 408.515625 110.144531 408.441406 110.535156 C 408.367188 110.925781 408.140625 111.269531 407.8125 111.496094 L 327.140625 166.445312 C 326.808594 166.667969 326.40625 166.753906 326.015625 166.679688 C 325.625 166.605469 325.277344 166.378906 325.054688 166.050781 L 302.609375 133.097656 C 302.386719 132.769531 302.304688 132.367188 302.378906 131.976562 C 302.453125 131.585938 302.679688 131.238281 303.007812 131.015625 Z M 303.007812 131.015625 " clip-rule="nonzero"/></clipPath><clipPath id="b756d097a0"><path d="M 300.464844 24.21875 L 351.472656 24.21875 L 351.472656 75.226562 L 300.464844 75.226562 Z M 300.464844 24.21875 " clip-rule="nonzero"/></clipPath><clipPath id="b1ee5e7495"><path d="M 325.96875 24.21875 C 311.882812 24.21875 300.464844 35.636719 300.464844 49.722656 C 300.464844 63.808594 311.882812 75.226562 325.96875 75.226562 C 340.054688 75.226562 351.472656 63.808594 351.472656 49.722656 C 351.472656 35.636719 340.054688 24.21875 325.96875 24.21875 Z M 325.96875 24.21875 " clip-rule="nonzero"/></clipPath></defs><g clip-path="url(#5354163a7c)"><g clip-path="url(#60a7520c08)"><g clip-path="url(#006380faaf)"><path fill="#ffe14f" d="M 104.625 85.832031 L 228.074219 1.742188 L 252.207031 37.171875 L 128.757812 121.261719 Z M 104.625 85.832031 " fill-opacity="1" fill-rule="nonzero"/></g></g></g><g clip-path="url(#c7c529d28d)"><g clip-path="url(#206c54c96f)"><g clip-path="url(#75359b75db)"><path fill="#ffe14f" d="M 54.515625 210.039062 L 277.613281 58.078125 L 301.742188 93.507812 L 78.648438 245.46875 Z M 54.515625 210.039062 " fill-opacity="1" fill-rule="nonzero"/></g></g></g><g clip-path="url(#446a798f75)"><g clip-path="url(#ef94f46c94)"><g clip-path="url(#9f1c9f32ce)"><path fill="#ffe14f" d="M 254.78125 217.46875 L 187.929688 133.066406 L 221.535156 106.449219 L 288.382812 190.855469 Z M 254.78125 217.46875 " fill-opacity="1" fill-rule="nonzero"/></g></g></g><g clip-path="url(#568ec499df)"><g clip-path="url(#0247fd969d)"><g clip-path="url(#d07185977a)"><path fill="#ffe14f" d="M 163.714844 236.535156 L 260.441406 159.085938 L 287.234375 192.546875 L 190.507812 269.996094 Z M 163.714844 236.535156 " fill-opacity="1" fill-rule="nonzero"/></g></g></g><g clip-path="url(#defca45c4a)"><g clip-path="url(#ea39642c52)"><g clip-path="url(#c2facb894e)"><path fill="#ffe14f" d="M 301.765625 131.859375 L 384.941406 75.203125 L 409.074219 110.632812 L 325.898438 167.289062 Z M 301.765625 131.859375 " fill-opacity="1" fill-rule="nonzero"/></g></g></g><g clip-path="url(#b756d097a0)"><g clip-path="url(#b1ee5e7495)"><path fill="#ffe14f" d="M 300.464844 24.21875 L 351.472656 24.21875 L 351.472656 75.226562 L 300.464844 75.226562 Z M 300.464844 24.21875 " fill-opacity="1" fill-rule="nonzero"/></g></g></svg>