<svg xmlns="http://www.w3.org/2000/svg" xmlns:xlink="http://www.w3.org/1999/xlink" width="640" zoomAndPan="magnify" viewBox="0 0 480 225" height="300" preserveAspectRatio="xMidYMid meet" version="1.0"><defs><clipPath id="8c7366da3a"><path d="M 137 4 L 256 4 L 256 101 L 137 101 Z M 137 4 " clip-rule="nonzero"/></clipPath><clipPath id="90da0f73e5"><path d="M 137.371094 72.109375 L 237.007812 4.238281 L 256.488281 32.835938 L 156.847656 100.707031 Z M 137.371094 72.109375 " clip-rule="nonzero"/></clipPath><clipPath id="8fbf8317fa"><path d="M 138.609375 71.265625 L 235.769531 5.085938 C 236.097656 4.859375 236.5 4.777344 236.890625 4.851562 C 237.285156 4.925781 237.628906 5.152344 237.851562 5.480469 L 255.640625 31.597656 C 255.867188 31.925781 255.949219 32.328125 255.875 32.71875 C 255.800781 33.113281 255.574219 33.457031 255.246094 33.679688 L 158.085938 99.859375 C 157.757812 100.085938 157.355469 100.167969 156.964844 100.09375 C 156.574219 100.019531 156.226562 99.792969 156.003906 99.464844 L 138.214844 73.347656 C 137.988281 73.019531 137.90625 72.617188 137.980469 72.226562 C 138.054688 71.832031 138.28125 71.488281 138.609375 71.265625 Z M 138.609375 71.265625 " clip-rule="nonzero"/></clipPath><clipPath id="d2c067d573"><path d="M 97 50 L 296 50 L 296 201 L 97 201 Z M 97 50 " clip-rule="nonzero"/></clipPath><clipPath id="83114039db"><path d="M 96.925781 172.359375 L 277.101562 49.632812 L 296.582031 78.230469 L 116.402344 200.957031 Z M 96.925781 172.359375 " clip-rule="nonzero"/></clipPath><clipPath id="1f74b517de"><path d="M 98.164062 171.515625 L 275.769531 50.539062 C 276.097656 50.316406 276.503906 50.234375 276.894531 50.304688 C 277.285156 50.378906 277.628906 50.605469 277.855469 50.9375 L 295.644531 77.050781 C 295.867188 77.382812 295.953125 77.785156 295.878906 78.175781 C 295.804688 78.566406 295.578125 78.914062 295.246094 79.136719 L 117.640625 200.113281 C 117.3125 200.335938 116.910156 200.421875 116.519531 200.347656 C 116.128906 200.273438 115.78125 200.046875 115.558594 199.71875 L 97.769531 173.601562 C 97.542969 173.273438 97.460938 172.867188 97.535156 172.476562 C 97.609375 172.085938 97.835938 171.742188 98.164062 171.515625 Z M 98.164062 171.515625 " clip-rule="nonzero"/></clipPath><clipPath id="9c38d24d7a"><path d="M 205 89 L 286 89 L 286 178 L 205 178 Z M 205 89 " clip-rule="nonzero"/></clipPath><clipPath id="b1d010cc0d"><path d="M 258.5625 178.359375 L 204.605469 110.234375 L 231.730469 88.753906 L 285.6875 156.878906 Z M 258.5625 178.359375 " clip-rule="nonzero"/></clipPath><clipPath id="6995b5e2b8"><path d="M 257.632812 177.183594 L 205.554688 111.433594 C 205.308594 111.121094 205.195312 110.726562 205.242188 110.328125 C 205.289062 109.933594 205.488281 109.574219 205.800781 109.328125 L 230.570312 89.707031 C 230.882812 89.460938 231.28125 89.347656 231.675781 89.394531 C 232.070312 89.4375 232.433594 89.640625 232.679688 89.953125 L 284.753906 155.703125 C 285.003906 156.011719 285.117188 156.410156 285.070312 156.804688 C 285.023438 157.203125 284.824219 157.5625 284.511719 157.808594 L 259.738281 177.429688 C 259.425781 177.675781 259.03125 177.789062 258.636719 177.742188 C 258.238281 177.695312 257.878906 177.496094 257.632812 177.183594 Z M 257.632812 177.183594 " clip-rule="nonzero"/></clipPath><clipPath id="a36386574d"><path d="M 185 131 L 285 131 L 285 221 L 185 221 Z M 185 131 " clip-rule="nonzero"/></clipPath><clipPath id="464075f1fd"><path d="M 185.0625 193.746094 L 263.238281 131.152344 L 284.863281 158.160156 L 206.6875 220.757812 Z M 185.0625 193.746094 " clip-rule="nonzero"/></clipPath><clipPath id="2882eb782f"><path d="M 186.230469 192.808594 L 262.007812 132.136719 C 262.316406 131.890625 262.714844 131.773438 263.109375 131.816406 C 263.503906 131.859375 263.867188 132.058594 264.113281 132.371094 L 283.867188 157.039062 C 284.113281 157.347656 284.230469 157.746094 284.1875 158.140625 C 284.140625 158.535156 283.941406 158.898438 283.632812 159.144531 L 207.859375 219.820312 C 207.546875 220.066406 207.152344 220.183594 206.753906 220.140625 C 206.359375 220.09375 205.996094 219.894531 205.75 219.585938 L 186 194.917969 C 185.75 194.609375 185.632812 194.210938 185.679688 193.816406 C 185.722656 193.421875 185.921875 193.058594 186.230469 192.808594 Z M 186.230469 192.808594 " clip-rule="nonzero"/></clipPath><clipPath id="24dd3ca3a9"><path d="M 297 64 L 383 64 L 383 138 L 297 138 Z M 297 64 " clip-rule="nonzero"/></clipPath><clipPath id="587dc6a74c"><path d="M 296.488281 109.261719 L 363.621094 63.53125 L 383.101562 92.128906 L 315.964844 137.855469 Z M 296.488281 109.261719 " clip-rule="nonzero"/></clipPath><clipPath id="9825c62ec4"><path d="M 297.726562 108.417969 L 362.363281 64.390625 C 362.691406 64.167969 363.097656 64.082031 363.488281 64.15625 C 363.878906 64.230469 364.222656 64.457031 364.445312 64.785156 L 382.238281 90.902344 C 382.460938 91.230469 382.542969 91.636719 382.46875 92.027344 C 382.394531 92.417969 382.171875 92.761719 381.839844 92.984375 L 317.207031 137.011719 C 316.878906 137.238281 316.472656 137.320312 316.082031 137.246094 C 315.691406 137.171875 315.34375 136.945312 315.121094 136.617188 L 297.332031 110.5 C 297.109375 110.171875 297.023438 109.765625 297.097656 109.375 C 297.171875 108.984375 297.398438 108.640625 297.726562 108.417969 Z M 297.726562 108.417969 " clip-rule="nonzero"/></clipPath><clipPath id="1953316fe6"><path d="M 295.4375 22.378906 L 336.605469 22.378906 L 336.605469 63.550781 L 295.4375 63.550781 Z M 295.4375 22.378906 " clip-rule="nonzero"/></clipPath><clipPath id="a177e415af"><path d="M 316.023438 22.378906 C 304.652344 22.378906 295.4375 31.597656 295.4375 42.964844 C 295.4375 54.335938 304.652344 63.550781 316.023438 63.550781 C 327.390625 63.550781 336.605469 54.335938 336.605469 42.964844 C 336.605469 31.597656 327.390625 22.378906 316.023438 22.378906 Z M 316.023438 22.378906 " clip-rule="nonzero"/></clipPath></defs><rect x="-48" width="576" fill="#ffffff" y="-22.5" height="270" fill-opacity="1"/><rect x="-48" width="576" fill="#fb923c" y="-22.5" height="270" fill-opacity="1"/><g clip-path="url(#8c7366da3a)"><g clip-path="url(#90da0f73e5)"><g clip-path="url(#8fbf8317fa)"><path fill="#100700" d="M 137.371094 72.109375 L 237.007812 4.238281 L 256.488281 32.835938 L 156.847656 100.707031 Z M 137.371094 72.109375 " fill-opacity="1" fill-rule="nonzero"/></g></g></g><g clip-path="url(#d2c067d573)"><g clip-path="url(#83114039db)"><g clip-path="url(#1f74b517de)"><path fill="#100700" d="M 96.925781 172.359375 L 276.992188 49.707031 L 296.46875 78.304688 L 116.402344 200.957031 Z M 96.925781 172.359375 " fill-opacity="1" fill-rule="nonzero"/></g></g></g><g clip-path="url(#9c38d24d7a)"><g clip-path="url(#b1d010cc0d)"><g clip-path="url(#6995b5e2b8)"><path fill="#100700" d="M 258.5625 178.359375 L 204.605469 110.234375 L 231.730469 88.753906 L 285.6875 156.878906 Z M 258.5625 178.359375 " fill-opacity="1" fill-rule="nonzero"/></g></g></g><g clip-path="url(#a36386574d)"><g clip-path="url(#464075f1fd)"><g clip-path="url(#2882eb782f)"><path fill="#100700" d="M 185.0625 193.746094 L 263.132812 131.234375 L 284.757812 158.246094 L 206.6875 220.757812 Z M 185.0625 193.746094 " fill-opacity="1" fill-rule="nonzero"/></g></g></g><g clip-path="url(#24dd3ca3a9)"><g clip-path="url(#587dc6a74c)"><g clip-path="url(#9825c62ec4)"><path fill="#100700" d="M 296.488281 109.261719 L 363.621094 63.53125 L 383.101562 92.128906 L 315.964844 137.855469 Z M 296.488281 109.261719 " fill-opacity="1" fill-rule="nonzero"/></g></g></g><g clip-path="url(#1953316fe6)"><g clip-path="url(#a177e415af)"><path fill="#100700" d="M 295.4375 22.378906 L 336.605469 22.378906 L 336.605469 63.550781 L 295.4375 63.550781 Z M 295.4375 22.378906 " fill-opacity="1" fill-rule="nonzero"/></g></g></svg>